    <svg id="visual" xmlns="http://www.w3.org/2000/svg" xmlns:xlink="http://www.w3.org/1999/xlink" version="1.1" viewBox="0 163.12 960 87.88"><path d="M0 191L22.8 191.2C45.7 191.3 91.3 191.7 137 195.5C182.7 199.3 228.3 206.7 274 206.2C319.7 205.7 365.3 197.3 411.2 193.5C457 189.7 503 190.3 548.8 186C594.7 181.7 640.3 172.3 686 167.5C731.7 162.7 777.3 162.3 823 164.2C868.7 166 914.3 170 937.2 172L960 174L960 251L937.2 251C914.3 251 868.7 251 823 251C777.3 251 731.7 251 686 251C640.3 251 594.7 251 548.8 251C503 251 457 251 411.2 251C365.3 251 319.7 251 274 251C228.3 251 182.7 251 137 251C91.3 251 45.7 251 22.8 251L0 251Z" fill="#FEFEFF" stroke-linecap="round" stroke-linejoin="miter"></path></svg>