<svg id="visual" xmlns="http://www.w3.org/2000/svg" xmlns:xlink="http://www.w3.org/1999/xlink" version="1.1" viewBox="0 181 960 70"><path d="M0 197L16 196.3C32 195.7 64 194.3 96 190.7C128 187 160 181 192 181C224 181 256 187 288 193C320 199 352 205 384 204.3C416 203.7 448 196.3 480 196.8C512 197.3 544 205.7 576 205.2C608 204.7 640 195.3 672 192C704 188.7 736 191.3 768 197C800 202.7 832 211.3 864 216.2C896 221 928 222 944 222.5L960 223L960 251L944 251C928 251 896 251 864 251C832 251 800 251 768 251C736 251 704 251 672 251C640 251 608 251 576 251C544 251 512 251 480 251C448 251 416 251 384 251C352 251 320 251 288 251C256 251 224 251 192 251C160 251 128 251 96 251C64 251 32 251 16 251L0 251Z" fill="#FEFEFF" stroke-linecap="round" stroke-linejoin="miter"></path></svg>